# xmcd CD database file
#
# Track frame offsets:
#	150
#	21990
#	43925
#	63592
#	86007
#	110307
#	128220
#	147885
#	169367
#	195060
#	213922
#	234347
#	259845
#	280107
#	301627
#	322092
#
# Disc length: 4632 seconds
#
# Revision: 4
# Processed by: cddbd v1.5PL3 Copyright (c) Steve Scherf et al.
# Submitted via: CDex 1.51
#
DISCID=e0121610
DTITLE=Ayumi Hamasaki - A BEST
DYEAR=1900
DGENRE=
TTITLE0=A Song for XX
TTITLE1=Trust
TTITLE2=Dpend on you
TTITLE3=LOVE ~Destiny~
TTITLE4=TO BE
TTITLE5=Boys and Girls
TTITLE6=Trauma
TTITLE7=End roll
TTITLE8=appears
TTITLE9=Fly high
TTITLE10=vogue
TTITLE11=Far away
TTITLE12=SEASONS
TTITLE13=SURREAL
TTITLE14=M
TTITLE15=Who...
EXTD=
EXTT0=
EXTT1=
EXTT2=
EXTT3=
EXTT4=
EXTT5=
EXTT6=
EXTT7=
EXTT8=
EXTT9=
EXTT10=
EXTT11=
EXTT12=
EXTT13=
EXTT14=
EXTT15=
PLAYORDER=
